<?xml version="1.0" encoding="UTF-8"?>
<!DOCTYPE svg PUBLIC "-//W3C//DTD SVG 1.1//EN" "http://www.w3.org/Graphics/SVG/1.1/DTD/svg11.dtd">
<svg xmlns="http://www.w3.org/2000/svg" version="1.1" width="1497px" height="310px" style="shape-rendering:geometricPrecision; text-rendering:geometricPrecision; image-rendering:optimizeQuality; fill-rule:evenodd; clip-rule:evenodd" xmlns:xlink="http://www.w3.org/1999/xlink">
<g><path style="opacity:0.962" fill="#0597d9" d="M 338.5,-0.5 C 348.167,-0.5 357.833,-0.5 367.5,-0.5C 415.545,8.54128 446.545,36.5413 460.5,83.5C 442.949,98.9386 425.282,99.1053 407.5,84C 403.405,80.2962 399.905,76.1295 397,71.5C 375.285,51.5971 351.118,48.0971 324.5,61C 315.475,66.9185 308.141,74.4185 302.5,83.5C 298,86.4779 293.333,89.3112 288.5,92C 279.514,95.2877 270.514,95.2877 261.5,92C 256.298,88.8994 250.965,86.0661 245.5,83.5C 254.697,48.4713 275.697,23.3046 308.5,8C 318.36,4.20575 328.36,1.37242 338.5,-0.5 Z"/></g>
<g><path style="opacity:0.993" fill="#ec3136" d="M -0.5,116.5 C -0.5,111.833 -0.5,107.167 -0.5,102.5C 1.23922,79.1261 10.5726,59.2927 27.5,43C 32.5113,38.9949 38.178,36.3283 44.5,35C 103.5,34.3333 162.5,34.3333 221.5,35C 231.805,41.4835 234.305,50.3169 229,61.5C 227.116,64.3845 224.616,66.5512 221.5,68C 164.13,68.02 106.797,68.6867 49.5,70C 39.5935,72.9075 33.4269,79.4075 31,89.5C 25.9467,106.354 27.28,122.687 35,138.5C 38.6802,143.59 43.5135,147.09 49.5,149C 107.521,149.992 165.521,150.992 223.5,152C 232.934,160.936 233.934,170.769 226.5,181.5C 224.998,182.083 223.665,182.916 222.5,184C 192.88,185.151 163.213,185.651 133.5,185.5C 102.804,185.639 72.1378,185.139 41.5,184C 30.3535,180.19 21.5202,173.357 15,163.5C 6.2752,148.906 1.10854,133.239 -0.5,116.5 Z"/></g>
<g><path style="opacity:0.994" fill="#ec3136" d="M 540.5,34.5 C 594.501,34.3333 648.501,34.5 702.5,35C 716.814,39.3129 726.648,48.4796 732,62.5C 735.218,73.3239 735.885,83.9906 734,94.5C 729.595,109.238 720.095,119.072 705.5,124C 719.266,136.23 729.266,150.897 735.5,168C 734.561,177.41 729.561,183.243 720.5,185.5C 717.382,184.441 714.382,183.108 711.5,181.5C 698.993,159.822 681.326,143.989 658.5,134C 648.708,130.975 638.708,128.975 628.5,128C 599.515,126.712 570.515,126.212 541.5,126.5C 541.667,141.504 541.5,156.504 541,171.5C 536.294,185.369 528.127,188.203 516.5,180C 515.206,177.913 514.039,175.746 513,173.5C 512.333,139.167 512.333,104.833 513,70.5C 516.171,53.7846 525.338,41.7846 540.5,34.5 Z M 547.5,68.5 C 597.834,68.3333 648.168,68.5 698.5,69C 705.142,72.9702 707.309,78.8036 705,86.5C 703.833,89 702,90.8333 699.5,92C 646.834,92.5 594.168,92.6667 541.5,92.5C 541.334,85.825 541.5,79.1583 542,72.5C 543.5,70.5313 545.333,69.198 547.5,68.5 Z"/></g>
<g><path style="opacity:0.993" fill="#ec3136" d="M 771.5,34.5 C 831.834,34.3333 892.168,34.5 952.5,35C 967.832,40.3325 977.665,50.8325 982,66.5C 985.968,81.7586 983.801,96.0919 975.5,109.5C 987.466,129.287 987.3,148.954 975,168.5C 968.016,178.245 958.516,183.745 946.5,185C 889.167,185.667 831.833,185.667 774.5,185C 768.718,182.952 764.552,179.118 762,173.5C 761.333,131.167 761.333,88.8333 762,46.5C 763.542,41.1337 766.709,37.1337 771.5,34.5 Z M 790.5,68.5 C 842.834,68.3333 895.168,68.5 947.5,69C 953.344,70.85 956.011,74.85 955.5,81C 956.176,86.6596 953.843,90.3262 948.5,92C 895.834,92.5 843.168,92.6667 790.5,92.5C 790.5,84.5 790.5,76.5 790.5,68.5 Z M 790.5,126.5 C 842.834,126.333 895.168,126.5 947.5,127C 953.105,128.774 955.771,132.607 955.5,138.5C 955.771,144.393 953.105,148.226 947.5,150C 895.168,150.5 842.834,150.667 790.5,150.5C 790.5,142.5 790.5,134.5 790.5,126.5 Z"/></g>
<g><path style="opacity:0.992" fill="#ec3136" d="M 1054.5,34.5 C 1112.83,34.3333 1171.17,34.5 1229.5,35C 1240.1,42.059 1242.27,51.2257 1236,62.5C 1234.13,64.7089 1231.96,66.5422 1229.5,68C 1174.83,68.3333 1120.17,68.6667 1065.5,69C 1053.84,70.909 1046.01,77.409 1042,88.5C 1036.2,107.12 1038.2,124.787 1048,141.5C 1052.83,146.332 1058.66,149.165 1065.5,150C 1119.83,150.333 1174.17,150.667 1228.5,151C 1237.17,155.517 1240.67,162.683 1239,172.5C 1236.8,178.695 1232.64,182.862 1226.5,185C 1170.5,185.667 1114.5,185.667 1058.5,185C 1045.25,182.956 1034.75,176.456 1027,165.5C 1008.95,136.535 1005.62,105.868 1017,73.5C 1024.04,54.964 1036.54,41.964 1054.5,34.5 Z"/></g>
<g><path style="opacity:0.992" fill="#ec3136" d="M 1303.5,34.5 C 1362.5,34.3333 1421.5,34.5 1480.5,35C 1489.32,39.2979 1492.49,46.7979 1490,57.5C 1487.85,62.0162 1484.68,65.5162 1480.5,68C 1425.17,68.3333 1369.83,68.6667 1314.5,69C 1304.12,70.0987 1296.62,75.2654 1292,84.5C 1286.39,100.366 1286.06,116.366 1291,132.5C 1295.05,142.775 1302.55,148.608 1313.5,150C 1369.17,150.333 1424.83,150.667 1480.5,151C 1489.1,156.125 1492.27,163.625 1490,173.5C 1488.03,179.804 1483.87,183.637 1477.5,185C 1420.83,185.667 1364.17,185.667 1307.5,185C 1300.19,184.452 1293.52,182.118 1287.5,178C 1275.4,167.302 1267.23,154.136 1263,138.5C 1254.83,109.022 1258.83,81.3552 1275,55.5C 1282.21,45.1693 1291.71,38.1693 1303.5,34.5 Z"/></g>
<g><path style="opacity:0.999" fill="#ec3237" d="M 460.5,83.5 C 476.452,79.6429 488.619,84.6429 497,98.5C 502.579,113.01 499.746,125.51 488.5,136C 479.398,141.793 469.732,142.96 459.5,139.5C 436.882,121.328 417.049,123.995 400,147.5C 383.83,165.922 363.664,172.756 339.5,168C 322.472,163.126 309.805,152.959 301.5,137.5C 295.574,123.866 294.408,109.866 298,95.5C 299.235,91.3692 300.735,87.3692 302.5,83.5C 308.141,74.4185 315.475,66.9185 324.5,61C 351.118,48.0971 375.285,51.5971 397,71.5C 399.905,76.1295 403.405,80.2962 407.5,84C 425.282,99.1053 442.949,98.9386 460.5,83.5 Z"/></g>
<g><path style="opacity:0.987" fill="#eb3136" d="M 245.5,83.5 C 241.519,102.541 241.852,121.541 246.5,140.5C 230.607,143.967 218.774,138.634 211,124.5C 204.747,104.511 211.247,90.6777 230.5,83C 235.584,82.2223 240.584,82.3889 245.5,83.5 Z"/></g>
<g><path style="opacity:0.994" fill="#ec3136" d="M 1068.5,92.5 C 1118.17,92.3333 1167.83,92.5 1217.5,93C 1227.93,100.002 1230.26,109.169 1224.5,120.5C 1222.53,122.816 1220.2,124.649 1217.5,126C 1167.83,126.667 1118.17,126.667 1068.5,126C 1058.59,120.091 1055.76,111.591 1060,100.5C 1062.4,97.262 1065.23,94.5954 1068.5,92.5 Z"/></g>
<g><path style="opacity:1" fill="#1d8dc8" d="M 245.5,83.5 C 250.965,86.0661 256.298,88.8994 261.5,92C 270.514,95.2877 279.514,95.2877 288.5,92C 293.333,89.3112 298,86.4779 302.5,83.5C 300.735,87.3692 299.235,91.3692 298,95.5C 294.408,109.866 295.574,123.866 301.5,137.5C 296.353,134.568 291.019,131.735 285.5,129C 277.299,126.873 269.299,127.54 261.5,131C 256.81,134.677 251.81,137.844 246.5,140.5C 241.852,121.541 241.519,102.541 245.5,83.5 Z"/></g>
<g><path style="opacity:0.959" fill="#0497d9" d="M 301.5,137.5 C 309.805,152.959 322.472,163.126 339.5,168C 363.664,172.756 383.83,165.922 400,147.5C 417.049,123.995 436.882,121.328 459.5,139.5C 442.086,190.059 406.586,217.059 353,220.5C 305.858,217.943 271.858,195.61 251,153.5C 249.476,149.132 247.976,144.798 246.5,140.5C 251.81,137.844 256.81,134.677 261.5,131C 269.299,127.54 277.299,126.873 285.5,129C 291.019,131.735 296.353,134.568 301.5,137.5 Z"/></g>
<g><path style="opacity:0.927" fill="#0097d9" d="M 15.5,228.5 C 18.5,228.5 21.5,228.5 24.5,228.5C 24.5,238.167 24.5,247.833 24.5,257.5C 30.5,257.5 36.5,257.5 42.5,257.5C 42.5,260.167 42.5,262.833 42.5,265.5C 36.5,265.5 30.5,265.5 24.5,265.5C 24.0899,271.621 24.5899,277.621 26,283.5C 26.9025,284.701 28.0692,285.535 29.5,286C 33.8206,286.499 38.1539,286.666 42.5,286.5C 42.5,288.833 42.5,291.167 42.5,293.5C 37.1563,293.666 31.8229,293.499 26.5,293C 21.8125,292.08 18.3125,289.58 16,285.5C 15.5001,266.503 15.3334,247.503 15.5,228.5 Z"/></g>
<g><path style="opacity:0.88" fill="#0097d9" d="M 49.5,228.5 C 52.8333,228.5 56.1667,228.5 59.5,228.5C 59.5,238.167 59.5,247.833 59.5,257.5C 66.8409,257.334 74.1742,257.5 81.5,258C 88.0568,258.894 92.5568,262.394 95,268.5C 95.4997,276.827 95.6664,285.16 95.5,293.5C 92.1667,293.5 88.8333,293.5 85.5,293.5C 85.6664,285.493 85.4997,277.493 85,269.5C 83.786,267.951 82.286,266.785 80.5,266C 73.5079,265.5 66.5079,265.334 59.5,265.5C 59.5,274.833 59.5,284.167 59.5,293.5C 56.1667,293.5 52.8333,293.5 49.5,293.5C 49.5,271.833 49.5,250.167 49.5,228.5 Z"/></g>
<g><path style="opacity:0.887" fill="#0097d8" d="M 439.5,309.5 C 436.167,309.5 432.833,309.5 429.5,309.5C 429.333,285.831 429.5,262.164 430,238.5C 432.222,234.612 435.388,231.779 439.5,230C 445.435,228.761 451.435,228.261 457.5,228.5C 457.5,231.167 457.5,233.833 457.5,236.5C 452.821,236.334 448.155,236.501 443.5,237C 442,237.833 440.833,239 440,240.5C 439.5,263.498 439.333,286.498 439.5,309.5 Z"/></g>
<g><path style="opacity:0.888" fill="#0097d9" d="M 481.5,228.5 C 484.833,228.5 488.167,228.5 491.5,228.5C 491.5,238.167 491.5,247.833 491.5,257.5C 498.841,257.334 506.174,257.5 513.5,258C 526.438,261.712 530.938,270.212 527,283.5C 525.098,288.4 521.598,291.567 516.5,293C 504.838,293.5 493.171,293.667 481.5,293.5C 481.5,271.833 481.5,250.167 481.5,228.5 Z M 491.5,265.5 C 498.841,265.334 506.174,265.5 513.5,266C 516.933,268.425 518.267,271.759 517.5,276C 518.564,280.785 516.897,284.118 512.5,286C 505.508,286.5 498.508,286.666 491.5,286.5C 491.5,279.5 491.5,272.5 491.5,265.5 Z"/></g>
<g><path style="opacity:0.897" fill="#0097d8" d="M 703.5,228.5 C 706.833,228.5 710.167,228.5 713.5,228.5C 713.5,250.167 713.5,271.833 713.5,293.5C 702.162,293.667 690.828,293.5 679.5,293C 674.685,291.69 671.185,288.857 669,284.5C 668.333,278.5 668.333,272.5 669,266.5C 672.189,261.655 676.689,258.822 682.5,258C 689.492,257.5 696.492,257.334 703.5,257.5C 703.5,247.833 703.5,238.167 703.5,228.5 Z M 682.5,265.5 C 689.5,265.5 696.5,265.5 703.5,265.5C 703.5,272.5 703.5,279.5 703.5,286.5C 696.825,286.666 690.158,286.5 683.5,286C 682.167,285.333 680.833,284.667 679.5,284C 678.363,278.918 678.196,273.751 679,268.5C 680.145,267.364 681.312,266.364 682.5,265.5 Z"/></g>
<g><path style="opacity:0.929" fill="#0097d9" d="M 720.5,228.5 C 723.833,228.5 727.167,228.5 730.5,228.5C 730.5,238.167 730.5,247.833 730.5,257.5C 737.508,257.334 744.508,257.5 751.5,258C 757.74,258.856 762.24,262.023 765,267.5C 765.667,273.167 765.667,278.833 765,284.5C 762.685,288.817 759.185,291.65 754.5,293C 743.172,293.5 731.838,293.667 720.5,293.5C 720.5,271.833 720.5,250.167 720.5,228.5 Z M 730.5,265.5 C 737.508,265.334 744.508,265.5 751.5,266C 752.931,266.465 754.097,267.299 755,268.5C 755.667,273.167 755.667,277.833 755,282.5C 753.992,284.259 752.492,285.426 750.5,286C 743.842,286.5 737.175,286.666 730.5,286.5C 730.5,279.5 730.5,272.5 730.5,265.5 Z"/></g>
<g><path style="opacity:0.896" fill="#0097d9" d="M 908.5,228.5 C 911.833,228.5 915.167,228.5 918.5,228.5C 918.5,250.167 918.5,271.833 918.5,293.5C 907.162,293.667 895.828,293.5 884.5,293C 879.815,291.65 876.315,288.817 874,284.5C 873.333,278.5 873.333,272.5 874,266.5C 877.189,261.655 881.689,258.822 887.5,258C 894.492,257.5 901.492,257.334 908.5,257.5C 908.5,247.833 908.5,238.167 908.5,228.5 Z M 887.5,265.5 C 894.5,265.5 901.5,265.5 908.5,265.5C 908.5,272.5 908.5,279.5 908.5,286.5C 901.825,286.666 895.158,286.5 888.5,286C 887.167,285.333 885.833,284.667 884.5,284C 883.363,278.918 883.196,273.751 884,268.5C 885.145,267.364 886.312,266.364 887.5,265.5 Z"/></g>
<g><path style="opacity:0.919" fill="#0097d9" d="M 1235.5,228.5 C 1238.83,228.5 1242.17,228.5 1245.5,228.5C 1245.5,238.167 1245.5,247.833 1245.5,257.5C 1251.17,257.5 1256.83,257.5 1262.5,257.5C 1262.5,260.167 1262.5,262.833 1262.5,265.5C 1256.83,265.5 1251.17,265.5 1245.5,265.5C 1245.21,271.561 1245.54,277.561 1246.5,283.5C 1247.67,284.584 1249,285.417 1250.5,286C 1254.49,286.499 1258.49,286.666 1262.5,286.5C 1262.5,288.833 1262.5,291.167 1262.5,293.5C 1256.07,293.87 1249.74,293.37 1243.5,292C 1240.33,290.167 1237.83,287.667 1236,284.5C 1235.5,265.836 1235.33,247.17 1235.5,228.5 Z"/></g>
<g><path style="opacity:0.871" fill="#0097d9" d="M 1364.5,228.5 C 1367.83,228.5 1371.17,228.5 1374.5,228.5C 1374.5,238.167 1374.5,247.833 1374.5,257.5C 1380.5,257.5 1386.5,257.5 1392.5,257.5C 1392.5,260.167 1392.5,262.833 1392.5,265.5C 1386.5,265.5 1380.5,265.5 1374.5,265.5C 1369.92,281.912 1375.92,288.912 1392.5,286.5C 1392.5,288.833 1392.5,291.167 1392.5,293.5C 1386.82,293.666 1381.16,293.499 1375.5,293C 1370.4,291.567 1366.9,288.4 1365,283.5C 1364.5,265.17 1364.33,246.836 1364.5,228.5 Z"/></g>
<g><path style="opacity:0.887" fill="#0097d8" d="M 116.5,257.5 C 122.176,257.334 127.843,257.501 133.5,258C 145.92,260.983 150.586,268.817 147.5,281.5C 135.814,281.168 124.148,281.501 112.5,282.5C 113.472,284.636 115.139,285.803 117.5,286C 126.16,286.5 134.827,286.666 143.5,286.5C 143.5,288.833 143.5,291.167 143.5,293.5C 133.494,293.666 123.494,293.5 113.5,293C 109.138,291.628 105.638,289.128 103,285.5C 102.333,279.167 102.333,272.833 103,266.5C 106.342,261.64 110.842,258.64 116.5,257.5 Z M 116.5,265.5 C 122.176,265.334 127.843,265.501 133.5,266C 136.521,267.539 137.854,270.039 137.5,273.5C 128.833,273.5 120.167,273.5 111.5,273.5C 111.667,269.821 113.334,267.154 116.5,265.5 Z"/></g>
<g><path style="opacity:0.888" fill="#0097d9" d="M 192.5,257.5 C 199.833,257.5 207.167,257.5 214.5,257.5C 214.5,260.167 214.5,262.833 214.5,265.5C 207.159,265.334 199.826,265.5 192.5,266C 191.069,266.465 189.903,267.299 189,268.5C 188.333,273.167 188.333,277.833 189,282.5C 190.214,284.049 191.714,285.215 193.5,286C 200.492,286.5 207.492,286.666 214.5,286.5C 214.5,288.833 214.5,291.167 214.5,293.5C 206.16,293.666 197.827,293.5 189.5,293C 185.532,292.036 182.365,289.869 180,286.5C 178.419,280.277 178.085,273.944 179,267.5C 182.022,262.082 186.522,258.748 192.5,257.5 Z"/></g>
<g><path style="opacity:0.913" fill="#0097d9" d="M 235.5,257.5 C 242.574,257.161 249.574,257.661 256.5,259C 259.902,260.4 262.736,262.567 265,265.5C 266.576,271.388 266.909,277.388 266,283.5C 264.098,288.4 260.598,291.567 255.5,293C 247.833,293.667 240.167,293.667 232.5,293C 228.138,291.628 224.638,289.128 222,285.5C 221.333,279.167 221.333,272.833 222,266.5C 225.342,261.64 229.842,258.64 235.5,257.5 Z M 235.5,265.5 C 241.952,265.084 248.285,265.584 254.5,267C 255.126,267.75 255.626,268.584 256,269.5C 256.667,273.833 256.667,278.167 256,282.5C 254.786,284.049 253.286,285.215 251.5,286C 245.388,286.909 239.388,286.576 233.5,285C 232.299,284.097 231.465,282.931 231,281.5C 230.333,277.833 230.333,274.167 231,270.5C 232.025,268.313 233.525,266.646 235.5,265.5 Z"/></g>
<g><path style="opacity:0.928" fill="#0196d7" d="M 284.5,257.5 C 288.833,257.5 293.167,257.5 297.5,257.5C 297.5,260.167 297.5,262.833 297.5,265.5C 293.154,265.334 288.821,265.501 284.5,266C 283.069,266.465 281.903,267.299 281,268.5C 279.562,276.723 279.062,285.057 279.5,293.5C 276.167,293.5 272.833,293.5 269.5,293.5C 269.086,284.418 269.586,275.418 271,266.5C 274.144,261.353 278.644,258.353 284.5,257.5 Z"/></g>
<g><path style="opacity:0.88" fill="#0097d8" d="M 318.5,257.5 C 324.176,257.334 329.843,257.501 335.5,258C 347.901,260.941 352.568,268.774 349.5,281.5C 337.814,281.168 326.148,281.501 314.5,282.5C 315.472,284.636 317.139,285.803 319.5,286C 328.16,286.5 336.827,286.666 345.5,286.5C 345.5,288.833 345.5,291.167 345.5,293.5C 335.494,293.666 325.494,293.5 315.5,293C 311.138,291.628 307.638,289.128 305,285.5C 304.333,279.167 304.333,272.833 305,266.5C 308.342,261.64 312.842,258.64 318.5,257.5 Z M 318.5,265.5 C 324.176,265.334 329.843,265.501 335.5,266C 338.941,267.318 340.275,269.818 339.5,273.5C 331.167,273.5 322.833,273.5 314.5,273.5C 313.774,269.693 315.107,267.026 318.5,265.5 Z"/></g>
<g><path style="opacity:0.914" fill="#0196d8" d="M 394.5,257.5 C 402.668,256.95 410.668,257.783 418.5,260C 420.609,261.141 422.442,262.641 424,264.5C 425.591,271.392 425.924,278.392 425,285.5C 422.362,289.128 418.862,291.628 414.5,293C 406.833,293.667 399.167,293.667 391.5,293C 387.532,292.036 384.365,289.869 382,286.5C 380.419,280.277 380.085,273.944 381,267.5C 384.022,262.082 388.522,258.748 394.5,257.5 Z M 394.5,265.5 C 400.952,265.084 407.285,265.584 413.5,267C 416.929,272.13 417.429,277.63 415,283.5C 413.829,284.893 412.329,285.727 410.5,286C 404.719,286.903 399.053,286.57 393.5,285C 390.987,282.604 389.987,279.604 390.5,276C 389.739,271.523 391.073,268.023 394.5,265.5 Z"/></g>
<g><path style="opacity:0.912" fill="#0096d8" d="M 547.5,257.5 C 552.167,257.5 556.833,257.5 561.5,257.5C 561.5,260.167 561.5,262.833 561.5,265.5C 556.821,265.334 552.155,265.501 547.5,266C 546.069,266.465 544.903,267.299 544,268.5C 543.5,276.827 543.334,285.16 543.5,293.5C 540.167,293.5 536.833,293.5 533.5,293.5C 533.334,284.827 533.5,276.16 534,267.5C 536.982,262.095 541.482,258.761 547.5,257.5 Z"/></g>
<g><path style="opacity:0.916" fill="#0196d7" d="M 581.5,257.5 C 590.473,256.701 599.14,257.868 607.5,261C 612.981,266.749 614.814,273.582 613,281.5C 611.975,287.528 608.475,291.361 602.5,293C 594.5,293.667 586.5,293.667 578.5,293C 574.76,291.71 571.593,289.543 569,286.5C 563.32,272.098 567.486,262.432 581.5,257.5 Z M 581.5,265.5 C 587.952,265.084 594.285,265.584 600.5,267C 601.701,267.903 602.535,269.069 603,270.5C 603.867,274.956 603.534,279.289 602,283.5C 601.097,284.701 599.931,285.535 598.5,286C 592.388,286.909 586.388,286.576 580.5,285C 577.987,282.604 576.987,279.604 577.5,276C 576.746,271.568 578.079,268.068 581.5,265.5 Z"/></g>
<g><path style="opacity:0.903" fill="#0096d8" d="M 620.5,257.5 C 629.506,257.334 638.506,257.5 647.5,258C 653.311,258.822 657.811,261.655 661,266.5C 661.667,272.833 661.667,279.167 661,285.5C 658.362,289.128 654.862,291.628 650.5,293C 641.756,293.91 633.089,293.576 624.5,292C 621.333,290.167 618.833,287.667 617,284.5C 616.501,279.845 616.334,275.179 616.5,270.5C 628.186,270.832 639.852,270.499 651.5,269.5C 650.636,267.803 649.303,266.637 647.5,266C 638.506,265.5 629.506,265.334 620.5,265.5C 620.5,262.833 620.5,260.167 620.5,257.5 Z M 626.5,277.5 C 635.167,277.5 643.833,277.5 652.5,277.5C 652.747,280.505 651.747,283.005 649.5,285C 642.808,286.959 636.141,286.959 629.5,285C 626.959,283.152 625.959,280.652 626.5,277.5 Z"/></g>
<g><path style="opacity:0.895" fill="#0097d8" d="M 776.5,257.5 C 785.506,257.334 794.506,257.5 803.5,258C 810.057,258.894 814.557,262.394 817,268.5C 817.851,274.253 817.517,279.92 816,285.5C 813.913,289.302 810.746,291.802 806.5,293C 798.5,293.667 790.5,293.667 782.5,293C 772.616,288.731 768.95,281.231 771.5,270.5C 783.505,270.667 795.505,270.5 807.5,270C 806.122,268.287 804.455,266.953 802.5,266C 793.84,265.5 785.173,265.334 776.5,265.5C 776.5,262.833 776.5,260.167 776.5,257.5 Z M 781.5,277.5 C 790.167,277.5 798.833,277.5 807.5,277.5C 806.63,285.124 802.297,288.124 794.5,286.5C 789.566,287.283 785.399,285.95 782,282.5C 781.506,280.866 781.34,279.199 781.5,277.5 Z"/></g>
<g><path style="opacity:0.913" fill="#0096d8" d="M 837.5,257.5 C 845.668,256.95 853.668,257.783 861.5,260C 863.609,261.141 865.442,262.641 867,264.5C 868.448,274.061 868.948,283.727 868.5,293.5C 865.167,293.5 861.833,293.5 858.5,293.5C 858.666,285.16 858.5,276.827 858,268.5C 857.097,267.299 855.931,266.465 854.5,266C 848.833,265.333 843.167,265.333 837.5,266C 836.069,266.465 834.903,267.299 834,268.5C 833.5,276.827 833.334,285.16 833.5,293.5C 830.167,293.5 826.833,293.5 823.5,293.5C 823.334,284.827 823.5,276.16 824,267.5C 826.982,262.095 831.482,258.761 837.5,257.5 Z"/></g>
<g><path style="opacity:0.896" fill="#0394d5" d="M 964.5,257.5 C 971.833,257.5 979.167,257.5 986.5,257.5C 986.5,260.167 986.5,262.833 986.5,265.5C 979.159,265.334 971.826,265.5 964.5,266C 963.069,266.465 961.903,267.299 961,268.5C 960.333,273.5 960.333,278.5 961,283.5C 961.5,284 962,284.5 962.5,285C 970.415,286.401 978.415,286.901 986.5,286.5C 986.5,288.833 986.5,291.167 986.5,293.5C 978.16,293.666 969.827,293.5 961.5,293C 957.138,291.628 953.638,289.128 951,285.5C 950.333,279.167 950.333,272.833 951,266.5C 954.342,261.64 958.842,258.64 964.5,257.5 Z"/></g>
<g><path style="opacity:0.909" fill="#0196d8" d="M 1006.5,257.5 C 1015.47,256.701 1024.14,257.868 1032.5,261C 1035.47,263.1 1037.3,265.934 1038,269.5C 1038.67,273.833 1038.67,278.167 1038,282.5C 1036.53,287.974 1033.03,291.474 1027.5,293C 1019.5,293.667 1011.5,293.667 1003.5,293C 995.306,290.282 991.64,284.616 992.5,276C 992.071,265.934 996.738,259.767 1006.5,257.5 Z M 1006.5,265.5 C 1012.95,265.084 1019.29,265.584 1025.5,267C 1026.33,267.833 1027.17,268.667 1028,269.5C 1028.88,274.287 1028.55,278.953 1027,283.5C 1026.1,284.701 1024.93,285.535 1023.5,286C 1017.39,286.909 1011.39,286.576 1005.5,285C 1002.99,282.604 1001.99,279.604 1002.5,276C 1002.67,273.833 1002.83,271.667 1003,269.5C 1004.38,268.295 1005.54,266.962 1006.5,265.5 Z"/></g>
<g><path style="opacity:0.918" fill="#0097d8" d="M 1055.5,257.5 C 1064.47,256.701 1073.14,257.868 1081.5,261C 1084.47,263.1 1086.3,265.934 1087,269.5C 1087.5,277.493 1087.67,285.493 1087.5,293.5C 1084.17,293.5 1080.83,293.5 1077.5,293.5C 1077.67,285.826 1077.5,278.159 1077,270.5C 1076.17,268.333 1074.67,266.833 1072.5,266C 1066.83,265.333 1061.17,265.333 1055.5,266C 1054,266.833 1052.83,268 1052,269.5C 1051.5,277.493 1051.33,285.493 1051.5,293.5C 1048.17,293.5 1044.83,293.5 1041.5,293.5C 1041.08,284.085 1041.58,274.752 1043,265.5C 1046.38,261.406 1050.54,258.739 1055.5,257.5 Z"/></g>
<g><path style="opacity:0.913" fill="#0097d8" d="M 1105.5,257.5 C 1113.67,256.95 1121.67,257.783 1129.5,260C 1131.61,261.141 1133.44,262.641 1135,264.5C 1136.45,274.061 1136.95,283.727 1136.5,293.5C 1133.17,293.5 1129.83,293.5 1126.5,293.5C 1126.67,285.16 1126.5,276.827 1126,268.5C 1125.1,267.299 1123.93,266.465 1122.5,266C 1116.83,265.333 1111.17,265.333 1105.5,266C 1104.07,266.465 1102.9,267.299 1102,268.5C 1101.5,276.827 1101.33,285.16 1101.5,293.5C 1098.17,293.5 1094.83,293.5 1091.5,293.5C 1091.33,284.827 1091.5,276.16 1092,267.5C 1094.98,262.095 1099.48,258.761 1105.5,257.5 Z"/></g>
<g><path style="opacity:0.879" fill="#0097d8" d="M 1155.5,257.5 C 1164.99,256.415 1173.99,257.915 1182.5,262C 1184.04,263.579 1185.21,265.413 1186,267.5C 1186.5,272.155 1186.67,276.821 1186.5,281.5C 1174.81,281.168 1163.15,281.501 1151.5,282.5C 1152.78,284.146 1154.45,285.313 1156.5,286C 1165.16,286.5 1173.83,286.666 1182.5,286.5C 1182.5,288.833 1182.5,291.167 1182.5,293.5C 1172.49,293.666 1162.49,293.5 1152.5,293C 1148.53,292.036 1145.36,289.869 1143,286.5C 1141.41,279.943 1141.08,273.276 1142,266.5C 1145.34,261.64 1149.84,258.64 1155.5,257.5 Z M 1155.5,265.5 C 1161.18,265.334 1166.84,265.501 1172.5,266C 1175.94,267.318 1177.27,269.818 1176.5,273.5C 1168.17,273.5 1159.83,273.5 1151.5,273.5C 1150.77,269.693 1152.11,267.026 1155.5,265.5 Z"/></g>
<g><path style="opacity:0.874" fill="#0097d9" d="M 1206.5,257.5 C 1214.17,257.5 1221.83,257.5 1229.5,257.5C 1229.5,260.167 1229.5,262.833 1229.5,265.5C 1221.83,265.334 1214.16,265.5 1206.5,266C 1203.06,268.38 1201.73,271.713 1202.5,276C 1201.44,280.785 1203.1,284.118 1207.5,286C 1214.83,286.5 1222.16,286.666 1229.5,286.5C 1229.5,288.833 1229.5,291.167 1229.5,293.5C 1220.83,293.666 1212.16,293.5 1203.5,293C 1195.31,290.282 1191.64,284.616 1192.5,276C 1192.07,265.934 1196.74,259.767 1206.5,257.5 Z"/></g>
<g><path style="opacity:0.939" fill="#0097d8" d="M 1270.5,257.5 C 1273.5,257.5 1276.5,257.5 1279.5,257.5C 1279.33,265.507 1279.5,273.507 1280,281.5C 1281.67,285.089 1284.51,286.755 1288.5,286.5C 1288.5,288.833 1288.5,291.167 1288.5,293.5C 1281.04,294.184 1275.21,291.517 1271,285.5C 1270.5,276.173 1270.33,266.839 1270.5,257.5 Z"/></g>
<g><path style="opacity:0.934" fill="#0196d8" d="M 1294.5,257.5 C 1297.83,257.5 1301.17,257.5 1304.5,257.5C 1304.5,267.167 1304.5,276.833 1304.5,286.5C 1307.62,286.358 1310.12,285.024 1312,282.5C 1316.07,274.365 1319.57,266.031 1322.5,257.5C 1325.83,257.5 1329.17,257.5 1332.5,257.5C 1328.96,266.915 1325.13,276.249 1321,285.5C 1318.91,289.302 1315.75,291.802 1311.5,293C 1305.84,293.499 1300.18,293.666 1294.5,293.5C 1294.5,281.5 1294.5,269.5 1294.5,257.5 Z"/></g>
<g><path style="opacity:0.926" fill="#0097d9" d="M 1339.5,257.5 C 1342.83,257.5 1346.17,257.5 1349.5,257.5C 1349.33,265.507 1349.5,273.507 1350,281.5C 1351.67,285.089 1354.51,286.755 1358.5,286.5C 1358.5,288.833 1358.5,291.167 1358.5,293.5C 1352.02,294.176 1346.52,292.176 1342,287.5C 1341.14,285.913 1340.47,284.246 1340,282.5C 1339.5,274.173 1339.33,265.84 1339.5,257.5 Z"/></g>
<g><path style="opacity:0.872" fill="#0097d8" d="M 1399.5,257.5 C 1402.83,257.5 1406.17,257.5 1409.5,257.5C 1409.33,265.84 1409.5,274.173 1410,282.5C 1412.14,285.321 1414.97,286.654 1418.5,286.5C 1418.5,288.833 1418.5,291.167 1418.5,293.5C 1411.34,294.392 1405.5,292.059 1401,286.5C 1399.55,276.939 1399.05,267.273 1399.5,257.5 Z"/></g>
<g><path style="opacity:0.883" fill="#0097d8" d="M 1438.5,257.5 C 1444.18,257.334 1449.84,257.501 1455.5,258C 1468.11,260.832 1472.78,268.665 1469.5,281.5C 1457.83,281.333 1446.16,281.5 1434.5,282C 1435.58,284.043 1437.25,285.376 1439.5,286C 1448.16,286.5 1456.83,286.666 1465.5,286.5C 1465.5,288.833 1465.5,291.167 1465.5,293.5C 1455.49,293.666 1445.49,293.5 1435.5,293C 1431.53,292.036 1428.36,289.869 1426,286.5C 1424.42,280.277 1424.09,273.944 1425,267.5C 1425.79,265.413 1426.96,263.579 1428.5,262C 1431.82,260.17 1435.15,258.67 1438.5,257.5 Z M 1438.5,265.5 C 1444.18,265.334 1449.84,265.501 1455.5,266C 1458.94,267.318 1460.27,269.818 1459.5,273.5C 1451.17,273.5 1442.83,273.5 1434.5,273.5C 1433.77,269.693 1435.11,267.026 1438.5,265.5 Z"/></g>
<g><path style="opacity:0.927" fill="#0097d9" d="M 1496.5,257.5 C 1496.5,260.167 1496.5,262.833 1496.5,265.5C 1493.5,265.253 1491,266.253 1489,268.5C 1487.76,274.056 1487.09,279.722 1487,285.5C 1482.79,291.517 1476.96,294.184 1469.5,293.5C 1469.5,291.167 1469.5,288.833 1469.5,286.5C 1473.49,286.755 1476.33,285.089 1478,281.5C 1475.05,266.301 1481.21,258.301 1496.5,257.5 Z"/></g>
</svg>
